<svg xmlns="http://www.w3.org/2000/svg" width="2420" height="1040" viewBox="0 0 2420 1040" font-family="sans-serif" font-size="11">
<rect width="2420" height="1040" fill="#fdfcf8"/>
<rect x="60.0" y="40.0" width="2160.0" height="960.0" fill="#eef3f7" stroke="#999"/>
<line x1="60.0" y1="40.0" x2="60.0" y2="1000.0" stroke="#c8d0d8" stroke-width="0.6"/>
<text x="60.0" y="1014.0" text-anchor="middle" fill="#555">-180°</text>
<line x1="240.0" y1="40.0" x2="240.0" y2="1000.0" stroke="#c8d0d8" stroke-width="0.6"/>
<text x="240.0" y="1014.0" text-anchor="middle" fill="#555">-150°</text>
<line x1="420.0" y1="40.0" x2="420.0" y2="1000.0" stroke="#c8d0d8" stroke-width="0.6"/>
<text x="420.0" y="1014.0" text-anchor="middle" fill="#555">-120°</text>
<line x1="600.0" y1="40.0" x2="600.0" y2="1000.0" stroke="#c8d0d8" stroke-width="0.6"/>
<text x="600.0" y="1014.0" text-anchor="middle" fill="#555">-90°</text>
<line x1="780.0" y1="40.0" x2="780.0" y2="1000.0" stroke="#c8d0d8" stroke-width="0.6"/>
<text x="780.0" y="1014.0" text-anchor="middle" fill="#555">-60°</text>
<line x1="960.0" y1="40.0" x2="960.0" y2="1000.0" stroke="#c8d0d8" stroke-width="0.6"/>
<text x="960.0" y="1014.0" text-anchor="middle" fill="#555">-30°</text>
<line x1="1140.0" y1="40.0" x2="1140.0" y2="1000.0" stroke="#666" stroke-width="1.2"/>
<text x="1140.0" y="1014.0" text-anchor="middle" fill="#555">0°</text>
<line x1="1320.0" y1="40.0" x2="1320.0" y2="1000.0" stroke="#c8d0d8" stroke-width="0.6"/>
<text x="1320.0" y="1014.0" text-anchor="middle" fill="#555">30°</text>
<line x1="1500.0" y1="40.0" x2="1500.0" y2="1000.0" stroke="#c8d0d8" stroke-width="0.6"/>
<text x="1500.0" y="1014.0" text-anchor="middle" fill="#555">60°</text>
<line x1="1680.0" y1="40.0" x2="1680.0" y2="1000.0" stroke="#c8d0d8" stroke-width="0.6"/>
<text x="1680.0" y="1014.0" text-anchor="middle" fill="#555">90°</text>
<line x1="1860.0" y1="40.0" x2="1860.0" y2="1000.0" stroke="#c8d0d8" stroke-width="0.6"/>
<text x="1860.0" y="1014.0" text-anchor="middle" fill="#555">120°</text>
<line x1="2040.0" y1="40.0" x2="2040.0" y2="1000.0" stroke="#c8d0d8" stroke-width="0.6"/>
<text x="2040.0" y="1014.0" text-anchor="middle" fill="#555">150°</text>
<line x1="2220.0" y1="40.0" x2="2220.0" y2="1000.0" stroke="#c8d0d8" stroke-width="0.6"/>
<text x="2220.0" y="1014.0" text-anchor="middle" fill="#555">180°</text>
<line x1="60.0" y1="1000.0" x2="2220.0" y2="1000.0" stroke="#c8d0d8" stroke-width="0.6"/>
<text x="54.0" y="1004.0" text-anchor="end" fill="#555">-70°</text>
<line x1="60.0" y1="820.0" x2="2220.0" y2="820.0" stroke="#c8d0d8" stroke-width="0.6"/>
<text x="54.0" y="824.0" text-anchor="end" fill="#555">-40°</text>
<line x1="60.0" y1="640.0" x2="2220.0" y2="640.0" stroke="#c8d0d8" stroke-width="0.6"/>
<text x="54.0" y="644.0" text-anchor="end" fill="#555">-10°</text>
<line x1="60.0" y1="460.0" x2="2220.0" y2="460.0" stroke="#c8d0d8" stroke-width="0.6"/>
<text x="54.0" y="464.0" text-anchor="end" fill="#555">20°</text>
<line x1="60.0" y1="280.0" x2="2220.0" y2="280.0" stroke="#c8d0d8" stroke-width="0.6"/>
<text x="54.0" y="284.0" text-anchor="end" fill="#555">50°</text>
<line x1="60.0" y1="100.0" x2="2220.0" y2="100.0" stroke="#c8d0d8" stroke-width="0.6"/>
<text x="54.0" y="104.0" text-anchor="end" fill="#555">80°</text>
<text x="60" y="24" font-size="18" font-weight="bold">ノウル</text>
<text x="134" y="24" fill="#555">半径 約5,850 km、緯度1度 ≒ 102 km</text>
<g class="shape"><title>パルサ交易王国 / 国 / ザハラ</title>
<path d="M1312.8,688.0 L1315.8,676.0 L1306.2,668.8 L1296.6,661.6 L1284.0,664.0 L1268.4,662.2 L1263.0,675.4 L1257.0,688.0 L1258.2,702.4 L1272.0,709.6 L1283.4,715.0 L1295.4,710.2 L1311.0,713.2 L1311.0,697.6 L1312.8,688.0 Z" fill="#c0392b" fill-opacity="0.15" fill-rule="evenodd" stroke="#c0392b" stroke-width="1.2" stroke-linejoin="round"/>
</g>
<g class="shape"><title>シルヴァーン / 国 / ザハラ</title>
<path d="M1488.0,598.0 L1493.4,586.6 L1487.4,575.8 L1474.8,576.4 L1464.0,571.0 L1456.2,580.6 L1448.4,587.2 L1442.4,598.0 L1452.6,606.4 L1459.2,611.8 L1465.8,616.6 L1474.2,615.4 L1483.8,615.4 L1486.8,605.8 L1488.0,598.0 Z" fill="#c0392b" fill-opacity="0.15" fill-rule="evenodd" stroke="#c0392b" stroke-width="1.2" stroke-linejoin="round"/>
</g>
<g class="shape"><title>ヴィシャラ神国 / 国 / ザハラ</title>
<path d="M1434.6,628.0 L1430.4,618.4 L1428.6,604.6 L1415.4,604.0 L1404.0,602.8 L1393.8,607.6 L1389.0,617.8 L1382.4,628.0 L1382.4,641.2 L1397.4,643.6 L1404.0,653.8 L1414.8,649.6 L1427.4,649.6 L1434.6,639.4 L1434.6,628.0 Z" fill="#c0392b" fill-opacity="0.15" fill-rule="evenodd" stroke="#c0392b" stroke-width="1.2" stroke-linejoin="round"/>
</g>
<g class="shape"><title>ガルド荒野国 / 国 / ザハラ</title>
<path d="M1264.8,736.0 L1264.2,721.0 L1251.6,711.4 L1238.4,703.0 L1224.6,713.8 L1209.6,713.2 L1203.0,724.0 L1202.4,736.0 L1197.0,750.4 L1212.0,755.8 L1221.6,769.6 L1236.6,761.2 L1249.8,758.2 L1261.8,749.8 L1264.8,736.0 Z" fill="#c0392b" fill-opacity="0.15" fill-rule="evenodd" stroke="#c0392b" stroke-width="1.2" stroke-linejoin="round"/>
</g>
<g class="shape"><title>コウ帝国 / 国 / セイラン</title>
<path d="M1767.0,400.0 L1745.4,385.0 L1746.0,361.0 L1719.0,365.8 L1699.8,361.0 L1675.2,361.6 L1671.0,383.8 L1662.6,400.0 L1674.6,414.4 L1674.0,439.0 L1696.8,449.2 L1719.0,433.0 L1734.0,425.8 L1752.0,417.4 L1767.0,400.0 Z" fill="#2471a3" fill-opacity="0.15" fill-rule="evenodd" stroke="#2471a3" stroke-width="1.2" stroke-linejoin="round"/>
</g>
<g class="shape"><title>アキツ諸侯国 / 国 / セイラン</title>
<path d="M1939.2,376.0 L1930.8,359.8 L1927.8,336.4 L1901.4,335.2 L1881.0,343.6 L1854.6,338.8 L1854.0,361.6 L1846.8,376.0 L1854.0,390.4 L1856.4,410.8 L1876.8,424.0 L1902.0,419.2 L1917.0,404.2 L1943.4,397.6 L1939.2,376.0 Z" fill="#2471a3" fill-opacity="0.15" fill-rule="evenodd" stroke="#2471a3" stroke-width="1.2" stroke-linejoin="round"/>
</g>
<g class="shape"><title>ハーン草原連合 / 国 / セイラン</title>
<path d="M1707.6,304.0 L1706.4,285.4 L1684.8,274.0 L1665.6,256.0 L1640.4,274.0 L1604.4,264.4 L1591.8,284.8 L1582.8,304.0 L1589.4,324.4 L1618.8,331.0 L1635.0,350.2 L1663.8,346.6 L1680.0,330.4 L1712.4,325.0 L1707.6,304.0 Z" fill="#2471a3" fill-opacity="0.15" fill-rule="evenodd" stroke="#2471a3" stroke-width="1.2" stroke-linejoin="round"/>
</g>
<g class="shape"><title>ヴェルム聖王国 / 国 / ハルディア</title>
<path d="M1166.4,340.0 L1173.6,327.4 L1163.4,317.8 L1145.4,322.6 L1132.2,313.0 L1119.0,319.6 L1110.0,329.2 L1117.2,340.0 L1108.2,352.0 L1122.0,357.4 L1132.2,366.4 L1147.2,363.4 L1161.6,360.4 L1170.6,351.4 L1166.4,340.0 Z" fill="#1e8449" fill-opacity="0.15" fill-rule="evenodd" stroke="#1e8449" stroke-width="1.2" stroke-linejoin="round"/>
</g>
<g class="shape"><title>リオネ王国 / 国 / ハルディア</title>
<path d="M1094.4,364.0 L1095.0,353.2 L1084.2,347.8 L1075.2,337.6 L1061.4,341.8 L1051.2,347.2 L1036.8,352.0 L1035.0,364.0 L1037.4,376.0 L1048.2,383.8 L1062.6,383.2 L1074.0,385.6 L1083.6,380.2 L1098.0,375.4 L1094.4,364.0 Z" fill="#1e8449" fill-opacity="0.15" fill-rule="evenodd" stroke="#1e8449" stroke-width="1.2" stroke-linejoin="round"/>
</g>
<g class="shape"><title>ローザ諸都市同盟 / 国 / ハルディア</title>
<path d="M1227.6,400.0 L1225.8,389.2 L1219.8,378.4 L1205.4,379.0 L1194.6,378.4 L1180.8,379.6 L1175.4,389.8 L1174.2,400.0 L1176.0,410.2 L1184.4,417.4 L1194.6,419.8 L1206.6,425.2 L1220.4,422.2 L1227.6,411.4 L1227.6,400.0 Z" fill="#1e8449" fill-opacity="0.15" fill-rule="evenodd" stroke="#1e8449" stroke-width="1.2" stroke-linejoin="round"/>
</g>
<g class="shape"><title>ドヴェルグ山王国 / 国 / ヴォルド</title>
<path d="M927.0,208.0 L907.8,199.6 L897.0,191.8 L882.0,182.8 L859.2,186.4 L830.4,184.6 L816.0,196.0 L808.2,208.0 L825.0,218.2 L832.2,230.2 L858.0,232.6 L883.8,235.6 L899.4,225.4 L918.0,218.8 L927.0,208.0 Z" fill="#b9770e" fill-opacity="0.15" fill-rule="evenodd" stroke="#b9770e" stroke-width="1.2" stroke-linejoin="round"/>
</g>
<g class="shape"><title>ルスカ辺境公国 / 国 / ヴォルド</title>
<path d="M1045.8,232.0 L1027.2,222.4 L1018.2,213.4 L998.4,212.2 L977.4,202.0 L966.0,216.4 L944.4,220.6 L941.4,232.0 L943.8,244.0 L962.4,250.6 L980.4,254.8 L999.6,254.8 L1012.8,247.0 L1027.8,241.6 L1045.8,232.0 Z" fill="#b9770e" fill-opacity="0.15" fill-rule="evenodd" stroke="#b9770e" stroke-width="1.2" stroke-linejoin="round"/>
</g>
<g class="shape"><title>ハルディア / 大陸 / ノウル</title>
<path d="M766.2,526.6 L891.0,539.2 L1015.8,526.6 L1140.6,532.6 L1266.0,526.6 L1378.2,508.0 L1453.2,451.6 L1465.8,364.0 L1440.6,276.4 L1390.8,201.4 L1303.2,151.6 L1203.6,151.6 L1116.0,176.2 L1066.2,239.2 L1053.6,289.0 L953.4,314.2 L841.2,326.2 L766.2,376.6 L741.0,451.6 L766.2,526.6 Z" fill="#5d6d7e" fill-opacity="0.15" fill-rule="evenodd" stroke="#5d6d7e" stroke-width="1.2" stroke-linejoin="round"/>
<text x="1118.6" y="364.7" text-anchor="middle" font-size="13" font-weight="bold" fill="#5d6d7e" fill-opacity="0.7">ハルディア</text>
</g>
<g class="shape"><title>セイラン / 大陸 / ノウル</title>
<path d="M1513.2,487.0 L1579.8,542.2 L1657.2,597.4 L1745.4,630.4 L1844.4,608.2 L1933.2,564.4 L2021.4,509.2 L2098.8,442.6 L2131.8,354.4 L2109.6,266.2 L2054.4,200.2 L1966.2,155.8 L1855.8,145.0 L1745.4,166.6 L1657.2,200.2 L1579.8,266.2 L1524.6,343.6 L1502.4,421.0 L1513.2,487.0 Z" fill="#5d6d7e" fill-opacity="0.15" fill-rule="evenodd" stroke="#5d6d7e" stroke-width="1.2" stroke-linejoin="round"/>
<text x="1806.7" y="383.4" text-anchor="middle" font-size="13" font-weight="bold" fill="#5d6d7e" fill-opacity="0.7">セイラン</text>
</g>
<g class="shape"><title>ザハラ / 大陸 / ノウル</title>
<path d="M1048.2,617.2 L1107.6,575.8 L1190.4,563.8 L1285.2,569.8 L1379.4,563.8 L1497.6,569.8 L1569.0,599.8 L1627.8,664.6 L1639.8,747.4 L1592.4,818.2 L1509.6,877.6 L1403.4,913.0 L1296.6,901.0 L1202.4,853.6 L1131.0,782.8 L1072.2,700.0 L1048.2,617.2 Z" fill="#5d6d7e" fill-opacity="0.15" fill-rule="evenodd" stroke="#5d6d7e" stroke-width="1.2" stroke-linejoin="round"/>
<text x="1347.0" y="707.4" text-anchor="middle" font-size="13" font-weight="bold" fill="#5d6d7e" fill-opacity="0.7">ザハラ</text>
</g>
<g class="shape"><title>ヴォルド / 大陸 / ノウル</title>
<path d="M60.0,284.8 L151.8,349.0 L279.6,374.2 L408.0,361.6 L510.6,310.6 L600.6,284.8 L715.8,284.8 L818.4,271.6 L921.0,259.0 L997.8,259.0 L1062.0,233.2 L1087.8,182.2 L1049.4,118.0 L946.8,66.4 L792.6,46.0 L536.4,46.0 L279.6,53.8 L87.6,92.2 L60.0,156.4 L60.0,284.8 Z" fill="#5d6d7e" fill-opacity="0.15" fill-rule="evenodd" stroke="#5d6d7e" stroke-width="1.2" stroke-linejoin="round"/>
<text x="598.2" y="212.3" text-anchor="middle" font-size="13" font-weight="bold" fill="#5d6d7e" fill-opacity="0.7">ヴォルド</text>
</g>
<g><title>パルサ交易王国 / 国 / ザハラ / lon 25 lat -18 (+600 m)</title>
<circle cx="1290.0" cy="688.0" r="4.0" fill="#c0392b" stroke="#fff" stroke-width="1" />
<text x="1298.0" y="692.0" text-anchor="start" fill="#c0392b" stroke="#fdfcf8" stroke-width="3" paint-order="stroke">パルサ交易王国 (+600 m)</text>
</g>
<g><title>シルヴァーン / 国 / ザハラ / lon 55 lat -3 (+150 m)</title>
<circle cx="1470.0" cy="598.0" r="4.0" fill="#c0392b" stroke="#fff" stroke-width="1" />
<text x="1478.0" y="602.0" text-anchor="start" fill="#c0392b" stroke="#fdfcf8" stroke-width="3" paint-order="stroke">シルヴァーン (+150 m)</text>
</g>
<g><title>ヴィシャラ神国 / 国 / ザハラ / lon 45 lat -8 (+80 m)</title>
<circle cx="1410.0" cy="628.0" r="4.0" fill="#c0392b" stroke="#fff" stroke-width="1" />
<text x="1418.0" y="632.0" text-anchor="start" fill="#c0392b" stroke="#fdfcf8" stroke-width="3" paint-order="stroke">ヴィシャラ神国 (+80 m)</text>
</g>
<g><title>ガルド荒野国 / 国 / ザハラ / lon 15 lat -26 (+900 m)</title>
<circle cx="1230.0" cy="736.0" r="4.0" fill="#c0392b" stroke="#fff" stroke-width="1" />
<text x="1238.0" y="740.0" text-anchor="start" fill="#c0392b" stroke="#fdfcf8" stroke-width="3" paint-order="stroke">ガルド荒野国 (+900 m)</text>
</g>
<g><title>コウ帝国 / 国 / セイラン / lon 95 lat 30 (+50 m)</title>
<circle cx="1710.0" cy="400.0" r="4.0" fill="#2471a3" stroke="#fff" stroke-width="1" />
<text x="1718.0" y="404.0" text-anchor="start" fill="#2471a3" stroke="#fdfcf8" stroke-width="3" paint-order="stroke">コウ帝国 (+50 m)</text>
</g>
<g><title>アキツ諸侯国 / 国 / セイラン / lon 125 lat 34 (+30 m)</title>
<circle cx="1890.0" cy="376.0" r="4.0" fill="#2471a3" stroke="#fff" stroke-width="1" />
<text x="1898.0" y="380.0" text-anchor="start" fill="#2471a3" stroke="#fdfcf8" stroke-width="3" paint-order="stroke">アキツ諸侯国 (+30 m)</text>
</g>
<g><title>ハーン草原連合 / 国 / セイラン / lon 85 lat 46 (+1,200 m)</title>
<circle cx="1650.0" cy="304.0" r="4.0" fill="#2471a3" stroke="#fff" stroke-width="1" />
<text x="1658.0" y="308.0" text-anchor="start" fill="#2471a3" stroke="#fdfcf8" stroke-width="3" paint-order="stroke">ハーン草原連合 (+1,200 m)</text>
</g>
<g><title>ヴェルム聖王国 / 国 / ハルディア / lon 0 lat 40 (+400 m)</title>
<circle cx="1140.0" cy="340.0" r="4.0" fill="#1e8449" stroke="#fff" stroke-width="1" />
<text x="1148.0" y="344.0" text-anchor="start" fill="#1e8449" stroke="#fdfcf8" stroke-width="3" paint-order="stroke">ヴェルム聖王国 (+400 m)</text>
</g>
<g><title>リオネ王国 / 国 / ハルディア / lon -12 lat 36 (+80 m)</title>
<circle cx="1068.0" cy="364.0" r="4.0" fill="#1e8449" stroke="#fff" stroke-width="1" />
<text x="1076.0" y="368.0" text-anchor="start" fill="#1e8449" stroke="#fdfcf8" stroke-width="3" paint-order="stroke">リオネ王国 (+80 m)</text>
</g>
<g><title>ローザ諸都市同盟 / 国 / ハルディア / lon 10 lat 30 (+10 m)</title>
<circle cx="1200.0" cy="400.0" r="4.0" fill="#1e8449" stroke="#fff" stroke-width="1" />
<text x="1208.0" y="404.0" text-anchor="start" fill="#1e8449" stroke="#fdfcf8" stroke-width="3" paint-order="stroke">ローザ諸都市同盟 (+10 m)</text>
</g>
<g><title>ドヴェルグ山王国 / 国 / ヴォルド / lon -45 lat 62 (+1,800 m)</title>
<circle cx="870.0" cy="208.0" r="4.0" fill="#b9770e" stroke="#fff" stroke-width="1" />
<text x="878.0" y="212.0" text-anchor="start" fill="#b9770e" stroke="#fdfcf8" stroke-width="3" paint-order="stroke">ドヴェルグ山王国 (+1,800 m)</text>
</g>
<g><title>ルスカ辺境公国 / 国 / ヴォルド / lon -25 lat 58 (+200 m)</title>
<circle cx="990.0" cy="232.0" r="4.0" fill="#b9770e" stroke="#fff" stroke-width="1" />
<text x="998.0" y="236.0" text-anchor="start" fill="#b9770e" stroke="#fdfcf8" stroke-width="3" paint-order="stroke">ルスカ辺境公国 (+200 m)</text>
</g>
<g><title>リンドール / 国 / アストラ / lon 73 lat -6 (+2,000 m)</title>
<path d="M1578.0,612.0 L1582.0,616.0 L1578.0,620.0 L1574.0,616.0 Z" fill="#7d3c98" stroke="#fff" stroke-width="1" />
<text x="1586.0" y="620.0" text-anchor="start" fill="#7d3c98" stroke="#fdfcf8" stroke-width="3" paint-order="stroke">リンドール (+2,000 m)</text>
</g>
<g><title>エンピレオ / 国 / アストラ / lon 20 lat 50 (+3,000 m)</title>
<path d="M1260.0,276.0 L1264.0,280.0 L1260.0,284.0 L1256.0,280.0 Z" fill="#7d3c98" stroke="#fff" stroke-width="1" />
<text x="1268.0" y="284.0" text-anchor="start" fill="#7d3c98" stroke="#fdfcf8" stroke-width="3" paint-order="stroke">エンピレオ (+3,000 m)</text>
</g>
<g><title>夏の宮廷 / 国 / ティルナ / lon 8 lat 38 (+300 m)</title>
<path d="M1188.0,348.0 L1192.0,352.0 L1188.0,356.0 L1184.0,352.0 Z" fill="#148f77" stroke="#fff" stroke-width="1" />
<text x="1196.0" y="368.0" text-anchor="start" fill="#148f77" stroke="#fdfcf8" stroke-width="3" paint-order="stroke">夏の宮廷 (+300 m)</text>
</g>
<g><title>冬の宮廷 / 国 / ティルナ / lon -30 lat 66 (+400 m)</title>
<path d="M960.0,180.0 L964.0,184.0 L960.0,188.0 L956.0,184.0 Z" fill="#148f77" stroke="#fff" stroke-width="1" />
<text x="968.0" y="188.0" text-anchor="start" fill="#148f77" stroke="#fdfcf8" stroke-width="3" paint-order="stroke">冬の宮廷 (+400 m)</text>
</g>
<g><title>パンデム / 国 / ネザル / lon 65 lat -38 (-1,000 m)</title>
<path d="M1530.0,804.0 L1534.0,808.0 L1530.0,812.0 L1526.0,808.0 Z" fill="#a04000" stroke="#fff" stroke-width="1" />
<text x="1538.0" y="812.0" text-anchor="start" fill="#a04000" stroke="#fdfcf8" stroke-width="3" paint-order="stroke">パンデム (-1,000 m)</text>
</g>
<g><title>ホロウ / 国 / ネザル / lon 18 lat -36 (-750 m)</title>
<path d="M1248.0,792.0 L1252.0,796.0 L1248.0,800.0 L1244.0,796.0 Z" fill="#a04000" stroke="#fff" stroke-width="1" />
<text x="1256.0" y="800.0" text-anchor="start" fill="#a04000" stroke="#fdfcf8" stroke-width="3" paint-order="stroke">ホロウ (-750 m)</text>
</g>
<text x="2240" y="52" font-weight="bold">親ごとの色</text>
<circle cx="2246.0" cy="68.0" r="5.0" fill="#c0392b" stroke="#fff" stroke-width="1" />
<text x="2258" y="72">ザハラ (大陸)</text>
<circle cx="2246.0" cy="86.0" r="5.0" fill="#2471a3" stroke="#fff" stroke-width="1" />
<text x="2258" y="90">セイラン (大陸)</text>
<circle cx="2246.0" cy="104.0" r="5.0" fill="#1e8449" stroke="#fff" stroke-width="1" />
<text x="2258" y="108">ハルディア (大陸)</text>
<circle cx="2246.0" cy="122.0" r="5.0" fill="#b9770e" stroke="#fff" stroke-width="1" />
<text x="2258" y="126">ヴォルド (大陸)</text>
<path d="M2246.0,135.0 L2251.0,140.0 L2246.0,145.0 L2241.0,140.0 Z" fill="#7d3c98" stroke="#fff" stroke-width="1" />
<text x="2258" y="144">アストラ (世界)</text>
<path d="M2246.0,153.0 L2251.0,158.0 L2246.0,163.0 L2241.0,158.0 Z" fill="#148f77" stroke="#fff" stroke-width="1" />
<text x="2258" y="162">ティルナ (世界)</text>
<path d="M2246.0,171.0 L2251.0,176.0 L2246.0,181.0 L2241.0,176.0 Z" fill="#a04000" stroke="#fff" stroke-width="1" />
<text x="2258" y="180">ネザル (世界)</text>
<path d="M2246.0,189.0 L2251.0,194.0 L2246.0,199.0 L2241.0,194.0 Z" fill="#5d6d7e" stroke="#fff" stroke-width="1" />
<text x="2258" y="198">ノウル (星)</text>
<text x="2240" y="228" fill="#555">● 大陸の子  ◆ それ以外の子</text>
<text x="2240" y="244" fill="#555">同じ経緯度は印を重ね、名を下に積む</text>
<text x="2240" y="260" fill="#555">薄い面は輪郭(polygon)を持つ場所</text>
</svg>
